# xmcd
#
# Track frame offsets:
#	182
#	15432
#	27657
#	37257
#	61145
#	70557
#	86457
#	100007
#	108432
#	120167
#	133257
#	147957
#	161532
#	175082
#
# Disc length: 2536 seconds
#
# Revision: 1
# Processed by: cddbd v1.5.2PL0 Copyright (c) Steve Scherf et al.
# Submitted via: audiograbber 1.83.01
#
DISCID=b109e60e
DTITLE=Mildred Bailey - The Best of Mildred Bailey
DYEAR=1995
DGENRE=
TTITLE0=Stormy Weather
TTITLE1=Summertime
TTITLE2=I Didn't Know About You
TTITLE3=Down Haerted Blues
TTITLE4=Tain't Me
TTITLE5=More And More
TTITLE6=She's Funny That Way
TTITLE7=I'm Beginning To See The Light
TTITLE8=Robin Hood
TTITLE9=Honeysuckle Rose
TTITLE10=Jenny
TTITLE11=Lover, Come Back To Me
TTITLE12=When It's Sleepy Time Down South
TTITLE13=Georgia On My Mind
EXTD=
EXTT0=
EXTT1=
EXTT2=
EXTT3=
EXTT4=
EXTT5=
EXTT6=
EXTT7=
EXTT8=
EXTT9=
EXTT10=
EXTT11=
EXTT12=
EXTT13=
PLAYORDER=
